#N canvas 69 255 450 300 10;
#X obj 100 71 oscparse;
#X obj 15 72 print direct;
#X obj 100 125 print parsed-output;
#X obj 231 128 list trim;
#X obj 231 150 route hi;
#X obj 231 172 route osc;
#X obj 252 206 print freq;
#X obj 218 246 dac~ 1;
#X obj 174 213 osc~ 300;
#X msg 39 5 listen 57126;
#X obj 41 35 netreceive -u -b 57126;
#X connect 0 0 2 0;
#X connect 0 0 3 0;
#X connect 3 0 4 0;
#X connect 4 0 5 0;
#X connect 5 0 6 0;
#X connect 5 0 8 0;
#X connect 8 0 7 0;
#X connect 9 0 10 0;
#X connect 10 0 0 0;
#X connect 10 0 1 0;
