#N canvas -557 368 450 300 10;
#X msg 45 21 connect localhost 57120;
#X obj 65 96 list prepend send;
#X obj 66 122 list trim;
#X obj 45 167 netsend -u -b;
#X msg 61 42 1 2 3;
#X obj 63 65 oscformat hi print;
#X connect 0 0 3 0;
#X connect 1 0 2 0;
#X connect 2 0 3 0;
#X connect 4 0 5 0;
#X connect 5 0 1 0;
